<?xml version="1.0" encoding="UTF-8"?>
<svg width="177px" height="32px" viewBox="0 0 177 32" version="1.1" xmlns="http://www.w3.org/2000/svg" xmlns:xlink="http://www.w3.org/1999/xlink">
    <!-- Generator: Sketch 53.2 (72643) - https://sketchapp.com -->
    <title>blueprism-logo</title>
    <desc>Created with Sketch.</desc>
    <g id="Symbols" stroke="none" stroke-width="1" fill="none" fill-rule="evenodd">
        <g id="Logo/BluePrism-full">
            <g id="blueprism-logo">
                <g id="Logo/BluePrism" transform="translate(43.000000, 0.500000)">
                    <g>
                        <path d="M61,7.33687792 L62.539589,7.33687792 L63.073314,9.5929392 L63.237537,9.5929392 C64.545586,8.01653119 66.469729,7.07266872 68.52346,7 C72.331378,7 75,10.2871119 75,15.9936197 C75,21.7001276 72.331378,24.9872395 68.52346,24.9872395 C66.488501,24.9223336 64.579062,23.9932177 63.278592,22.435134 L63.11437,22.435134 L63.11437,31 L61.061584,31 L61,7.33687792 Z M63.052786,20.0463632 C64.78739,22.241174 66.357771,23.3334751 68.297654,23.3334751 C71.171554,23.3334751 72.865103,20.7813696 72.865103,16.0344534 C72.865103,11.2875372 71.16129,8.73543173 68.297654,8.73543173 C66.357771,8.73543173 64.797654,9.7562739 63.052786,11.9919183 L63.052786,20.0463632 Z" id="Shape" fill="#047BC1" fill-rule="nonzero"></path>
                        <path d="M79.029126,7.26071842 L80.970874,7.26071842 L80.970874,10.3893395 L81.165049,10.3893395 C82.300971,8.05330243 83.757282,7 85.902913,7 L86,7 L86,9.08574739 L85.708738,9.08574739 C83.407767,9.08574739 81.893204,10.5144844 80.941748,13.8725377 L80.941748,25 L79,25 L79.029126,7.26071842 Z" id="Path" fill="#047BC1" fill-rule="nonzero"></path>
                        <rect id="Rectangle" fill="#047BC1" fill-rule="nonzero" x="90" y="7" width="2" height="18"></rect>
                        <path d="M102.064754,23.4115477 C104.313115,23.4115477 105.804918,22.0498909 105.804918,20.2172851 C105.804918,18.1696809 104.110656,17.6577799 101.127049,16.5930257 C97.45082,15.292797 95.543443,14.299709 95.543443,11.6275855 C95.543443,8.95546201 97.791803,7 101.404098,7 C103.841282,7.03838548 106.100241,8.23479243 107.435246,10.1942626 L105.911475,11.2180647 C104.856015,9.6049665 103.014253,8.62359342 101.031148,8.61760732 C100.190723,8.53249311 99.352637,8.79756976 98.729176,9.34569367 C98.105714,9.8938176 97.756683,10.6724096 97.770492,11.4842532 C97.770492,13.347573 99.539344,13.7775699 102.554918,14.8832762 C106.156557,16.1835049 108,17.248259 108,20.0022867 C108,22.7563143 105.570492,24.998441 101.830328,24.998441 C99.093257,25.0512828 96.517518,23.7579177 95,21.5687039 L96.598361,20.3401414 C98.154098,22.3877456 99.954918,23.4115477 102.064754,23.4115477 Z" id="Path" fill="#047BC1" fill-rule="nonzero"></path>
                        <path d="M112.122222,7.31321415 L114.006481,7.31321415 L114.006481,10.0478553 L114.138889,10.0478553 C115.962037,7.96828029 117.876852,7.00127789 119.7,7.00127789 C121.591893,6.95442608 123.282634,8.20007151 123.835185,10.0478553 L124.069444,10.0478553 C125.953704,7.96828029 127.776852,7.00127789 129.630556,7.00127789 C132.543519,7.00127789 134,8.89369119 134,12.6785178 L134,25 L132.044444,25 L132.044444,13.4271648 C132.044444,10.3078022 131.514815,8.83130394 129.060185,8.83130394 C127.471296,8.83130394 125.75,9.8710915 124.059259,12.1066347 L124.059259,25 L122.022222,25 L122.022222,13.4271648 C122.022222,10.3078022 121.492593,8.83130394 119.037963,8.83130394 C117.449074,8.83130394 115.758333,9.8710915 114.037037,12.1066347 L114.037037,25 L112,25 L112.122222,7.31321415 Z" id="Path" fill="#047BC1" fill-rule="nonzero"></path>
                        <path d="M3.4234551,0 L3.4234551,8.78626023 C4.4278921,7.37597283 6.0675372,6.54917409 7.8054775,6.57660479 C12.1242978,6.57660479 15,9.9801025 15,15.6665617 C15,21.5938839 12.2928371,24.9973816 7.8370787,24.9973816 C5.946933,25.0544512 4.1514152,24.175657 3.0442416,22.6515863 L2.5280899,24.7460464 L0,24.7460464 C0.1685393,22.9762276 0.2106742,21.3111318 0.2106742,19.7402867 L0.2106742,0 L3.4234551,0 Z M7.3314607,22.3060003 C10.0702247,22.3060003 11.681882,20.0963449 11.681882,15.9074247 C11.681882,11.5195307 10.1018258,9.26798606 7.2261236,9.26798606 C5.6983799,9.33483991 4.2906273,10.1102116 3.4234551,11.3624462 L3.4234551,20.0439834 C4.2834234,21.3799551 5.7382789,22.222049 7.3314607,22.3060003 Z" id="Shape" fill="#124E91" fill-rule="nonzero"></path>
                        <polygon id="Path" fill="#124E91" fill-rule="nonzero" points="21 1 21 25 18 25 18 1"></polygon>
                        <path d="M29.0712626,7 L29.0712626,18.9236994 C29.0712626,21.2543353 29.796282,22.3364162 31.5886909,22.3364162 C33.2738301,22.1803208 34.825501,21.3242378 35.8884586,19.9641618 L35.8884586,7 L39,7 L39,24.6878613 L36.120062,24.6878613 L36.120062,22.3260116 C34.2168861,24.0843931 32.5553834,25 30.6219985,25 C27.7118513,25 26,23.1375723 26,19.7976879 L26,7 L29.0712626,7 Z" id="Path" fill="#124E91" fill-rule="nonzero"></path>
                        <path d="M46.177665,16.5738968 L46.177665,16.9103596 C46.177665,20.4279255 47.7614213,22.3855274 50.5025381,22.3855274 C52.313966,22.3931631 53.9587936,21.3252376 54.6954315,19.6632373 L57,21.0498719 C55.72818,23.5542843 53.1275897,25.0927114 50.3299492,24.9956633 C45.6091371,24.9956633 43,21.9369103 43,16.1762589 C43,10.2422781 45.6395939,7 50.106599,7 C54.2284264,7 56.8781726,10.1505156 56.8781726,15.6562709 C56.8781726,15.9519503 56.8781726,16.2578256 56.8781726,16.5535051 L46.177665,16.5738968 Z M50.035533,9.5489608 C47.7614213,9.5489608 46.3401015,11.1700999 46.2081218,14.1574819 L53.7005076,14.1574819 C53.6395939,11.2006874 52.2182741,9.538765 50.035533,9.538765 L50.035533,9.5489608 Z" id="Shape" fill="#124E91" fill-rule="nonzero"></path>
                        <path d="M131.5,0 C132.880712,0 134,1.11928813 134,2.5 C134,3.88071187 132.880712,5 131.5,5 C130.119288,5 129,3.88071187 129,2.5 C129,1.11928813 130.119288,0 131.5,0 Z M131.5,4.58715596 C132.051591,4.58138587 132.577366,4.35262249 132.957579,3.95296691 C133.337792,3.55331133 133.540072,3.01679005 133.518349,2.46559633 C133.575558,1.70609262 133.202768,0.97848153 132.552905,0.5812448 C131.903042,0.184008067 131.08549,0.184008067 130.435627,0.5812448 C129.785765,0.97848153 129.412974,1.70609262 129.470183,2.46559633 C129.432151,3.02841292 129.628716,3.58187758 130.013225,3.99462698 C130.397734,4.40737638 130.935903,4.64260987 131.5,4.64449541 L131.5,4.58715596 Z M130.559633,1.05504587 L131.706422,1.05504587 C132.383028,1.05504587 132.715596,1.33027523 132.715596,1.88073394 C132.735229,2.09206588 132.663843,2.30174591 132.519339,2.45719739 C132.374835,2.61264887 132.170916,2.69912936 131.958716,2.69495413 L132.795872,3.99082569 L132.291284,3.99082569 L131.477064,2.69495413 L131.075688,2.69495413 L131.075688,3.9793578 L130.594037,3.9793578 L130.559633,1.05504587 Z M131.041284,2.31651376 L131.614679,2.31651376 C131.981651,2.31651376 132.222477,2.23623853 132.222477,1.85779817 C132.222477,1.4793578 131.924312,1.43348624 131.614679,1.43348624 L131.041284,1.43348624 L131.041284,2.31651376 Z" id="Shape" fill="#167EC2" fill-rule="nonzero"></path>
                    </g>
                </g>
                <g id="Logo/Pyramid" transform="translate(-0.000000, 1.000000)">
                    <g transform="translate(0.373057, 0.186747)" id="blueprism-logo">
                        <g fill-rule="nonzero">
                            <polygon id="Path" fill="#0E7ABF" points="29.274684 13.5806559 23.3784561 16.9939759 29.3264249 23.9036145 35.253886 20.4799197"></polygon>
                            <polygon id="Path" fill="#D3E2EE" points="29.3161711 23.9036145 23.5025907 27.2199126 17.5336788 20.3554217 23.3784561 16.9939759"></polygon>
                            <polygon id="Path" fill="#D3E2EE" points="29.2849741 13.5806559 29.274684 13.5806559 23.3784561 16.9939759 17.5336788 10.1777108 23.3058819 6.7547752"></polygon>
                            <polygon id="Path" fill="#0E7ABF" points="17.5336788 30.626506 23.5025907 27.2199126 17.5336788 20.3554217"></polygon>
                            <polygon id="Path" fill="#104C8D" points="23.3784561 16.9939759 17.5336788 20.3554217 17.5336788 10.1777108"></polygon>
                            <polygon id="Path" fill="#0E7ABF" points="17.5336788 10.1777108 23.3058819 6.7547752 17.5128811 0.093373494"></polygon>
                            <polygon id="Path" fill="#0068AB" points="5.78238342 23.7278593 17.5336788 30.626506 17.5336788 20.3554217 5.78238342 13.6773035"></polygon>
                            <polygon id="Path" fill="#1E3667" points="17.5336788 20.3554217 11.5647668 16.9635258 11.5647668 6.88800323 17.5336788 10.1777108"></polygon>
                            <polygon id="Path" fill="#0068AB" points="17.5128811 0.093373494 11.5647668 6.88800323 17.5336788 10.1777108"></polygon>
                            <polygon id="Path" fill="#B1C8D5" points="11.5647668 16.9635258 5.78238342 13.6773035 11.5647668 6.88800323"></polygon>
                            <polygon id="Path" fill="#1E3667" points="0 20.5662035 5.78238342 23.7278593 5.78238342 13.6773035"></polygon>
                        </g>
                    </g>
                </g>
            </g>
        </g>
    </g>
</svg>