<?xml version="1.0" encoding="UTF-8"?>
<svg width="189px" height="164px" viewBox="0 0 189 164" version="1.1" xmlns="http://www.w3.org/2000/svg" xmlns:xlink="http://www.w3.org/1999/xlink">
    <!-- Generator: Sketch 53.2 (72643) - https://sketchapp.com -->
    <title>blueprism-logo</title>
    <desc>Created with Sketch.</desc>
    <g id="Symbols" stroke="none" stroke-width="1" fill="none" fill-rule="evenodd">
        <g id="Logo/Pyramid" transform="translate(-2.000000, -1.000000)" fill-rule="nonzero">
            <g transform="translate(2.000000, 1.000000)" id="blueprism-logo">
                <g>
                    <polygon id="Path" fill="#0E7ABF" points="156.944834 72.7222221 125.334501 91 157.222222 128 189 109.666667"></polygon>
                    <polygon id="Path" fill="#D3E2EE" points="157.16725 128 126 145.758242 94 109 125.334501 91"></polygon>
                    <polygon id="Path" fill="#D3E2EE" points="157 72.7222221 156.944834 72.7222221 125.334501 91 94 54.5 124.945423 36.1707317"></polygon>
                    <polygon id="Path" fill="#0E7ABF" points="94 164 126 145.758242 94 109"></polygon>
                    <polygon id="Path" fill="#104C8D" points="125.334501 91 94 109 94 54.5"></polygon>
                    <polygon id="Path" fill="#0E7ABF" points="94 54.5 124.945423 36.1707317 93.8885014 0.5"></polygon>
                    <polygon id="Path" fill="#0068AB" points="31 127.058859 94 164 94 109 31 73.239754"></polygon>
                    <polygon id="Path" fill="#1E3667" points="94 109 62 90.8369446 62 36.8841463 94 54.5"></polygon>
                    <polygon id="Path" fill="#0068AB" points="93.8885014 0.5 62 36.8841463 94 54.5"></polygon>
                    <polygon id="Path" fill="#B1C8D5" points="62 90.8369446 31 73.239754 62 36.8841463"></polygon>
                    <polygon id="Path" fill="#1E3667" points="0 110.128703 31 127.058859 31 73.239754"></polygon>
                </g>
            </g>
        </g>
    </g>
</svg>